<mxfile host="app.diagrams.net" agent="Mozilla/5.0 (X11; Linux x86_64) AppleWebKit/537.36 (KHTML, like Gecko) Chrome/137.0.0.0 Safari/537.36 Edg/137.0.0.0" version="27.1.5">
  <diagram name="Page-1" id="r4-LezMkJqTEOYEteIXn">
    <mxGraphModel grid="1" page="1" gridSize="10" guides="1" tooltips="1" connect="1" arrows="1" fold="1" pageScale="1" pageWidth="850" pageHeight="1100" math="0" shadow="0">
      <root>
        <mxCell id="0" />
        <mxCell id="1" parent="0" />
        <mxCell id="YW2QsFQ3kxJcTjRUonwY-1" value="P&lt;span style=&quot;background-color: transparent; color: light-dark(rgb(0, 0, 0), rgb(255, 255, 255));&quot;&gt;aulo&lt;/span&gt;" style="shape=umlActor;verticalLabelPosition=bottom;verticalAlign=top;html=1;outlineConnect=0;labelBackgroundColor=none;rounded=1;" vertex="1" parent="1">
          <mxGeometry x="160" y="310" width="30" height="60" as="geometry" />
        </mxCell>
        <mxCell id="YW2QsFQ3kxJcTjRUonwY-3" value="main / Produção(?)" style="ellipse;whiteSpace=wrap;html=1;rounded=1;" vertex="1" parent="1">
          <mxGeometry x="310" y="20" width="120" height="50" as="geometry" />
        </mxCell>
        <mxCell id="YW2QsFQ3kxJcTjRUonwY-24" style="edgeStyle=orthogonalEdgeStyle;rounded=1;orthogonalLoop=1;jettySize=auto;html=1;entryX=0.5;entryY=1;entryDx=0;entryDy=0;dashed=1;" edge="1" parent="1" source="YW2QsFQ3kxJcTjRUonwY-4" target="YW2QsFQ3kxJcTjRUonwY-3">
          <mxGeometry relative="1" as="geometry" />
        </mxCell>
        <mxCell id="YW2QsFQ3kxJcTjRUonwY-4" value="main_dev" style="ellipse;whiteSpace=wrap;html=1;rounded=1;" vertex="1" parent="1">
          <mxGeometry x="310" y="245" width="120" height="50" as="geometry" />
        </mxCell>
        <mxCell id="YW2QsFQ3kxJcTjRUonwY-12" style="rounded=1;orthogonalLoop=1;jettySize=auto;html=1;entryX=0.4;entryY=1.014;entryDx=0;entryDy=0;exitX=1;exitY=0.5;exitDx=0;exitDy=0;dashed=1;edgeStyle=orthogonalEdgeStyle;entryPerimeter=0;" edge="1" parent="1" source="YW2QsFQ3kxJcTjRUonwY-20" target="YW2QsFQ3kxJcTjRUonwY-4">
          <mxGeometry relative="1" as="geometry">
            <mxPoint x="70.00000000000023" y="360" as="sourcePoint" />
          </mxGeometry>
        </mxCell>
        <mxCell id="YW2QsFQ3kxJcTjRUonwY-11" style="rounded=1;orthogonalLoop=1;jettySize=auto;html=1;exitX=0;exitY=0.5;exitDx=0;exitDy=0;dashed=1;edgeStyle=orthogonalEdgeStyle;entryX=0.613;entryY=1.014;entryDx=0;entryDy=0;entryPerimeter=0;" edge="1" parent="1" source="YW2QsFQ3kxJcTjRUonwY-23" target="YW2QsFQ3kxJcTjRUonwY-4">
          <mxGeometry relative="1" as="geometry">
            <mxPoint x="670" y="360" as="sourcePoint" />
            <mxPoint x="370" y="300" as="targetPoint" />
          </mxGeometry>
        </mxCell>
        <mxCell id="YW2QsFQ3kxJcTjRUonwY-17" style="rounded=1;orthogonalLoop=1;jettySize=auto;html=1;entryX=0;entryY=1;entryDx=0;entryDy=0;exitX=0.5;exitY=0;exitDx=0;exitDy=0;dashed=1;" edge="1" parent="1" source="YW2QsFQ3kxJcTjRUonwY-21" target="YW2QsFQ3kxJcTjRUonwY-4">
          <mxGeometry relative="1" as="geometry">
            <mxPoint x="270" y="360" as="sourcePoint" />
          </mxGeometry>
        </mxCell>
        <mxCell id="YW2QsFQ3kxJcTjRUonwY-18" style="rounded=1;orthogonalLoop=1;jettySize=auto;html=1;entryX=0.9;entryY=0.786;entryDx=0;entryDy=0;entryPerimeter=0;exitX=0.5;exitY=0;exitDx=0;exitDy=0;dashed=1;" edge="1" parent="1" source="YW2QsFQ3kxJcTjRUonwY-22" target="YW2QsFQ3kxJcTjRUonwY-4">
          <mxGeometry relative="1" as="geometry">
            <mxPoint x="470" y="360" as="sourcePoint" />
          </mxGeometry>
        </mxCell>
        <mxCell id="YW2QsFQ3kxJcTjRUonwY-20" value="joao(*)" style="ellipse;whiteSpace=wrap;html=1;rounded=1;" vertex="1" parent="1">
          <mxGeometry x="40" y="420" width="120" height="50" as="geometry" />
        </mxCell>
        <mxCell id="YW2QsFQ3kxJcTjRUonwY-21" value="paulo(*)" style="ellipse;whiteSpace=wrap;html=1;rounded=1;" vertex="1" parent="1">
          <mxGeometry x="210" y="360" width="120" height="50" as="geometry" />
        </mxCell>
        <mxCell id="YW2QsFQ3kxJcTjRUonwY-22" value="gustavo(*)" style="ellipse;whiteSpace=wrap;html=1;rounded=1;" vertex="1" parent="1">
          <mxGeometry x="410" y="360" width="120" height="50" as="geometry" />
        </mxCell>
        <mxCell id="YW2QsFQ3kxJcTjRUonwY-23" value="andreza(*)" style="ellipse;whiteSpace=wrap;html=1;rounded=1;" vertex="1" parent="1">
          <mxGeometry x="580" y="420" width="120" height="50" as="geometry" />
        </mxCell>
        <mxCell id="YW2QsFQ3kxJcTjRUonwY-51" style="edgeStyle=orthogonalEdgeStyle;rounded=1;orthogonalLoop=1;jettySize=auto;html=1;entryX=0;entryY=0.5;entryDx=0;entryDy=0;" edge="1" parent="1" source="YW2QsFQ3kxJcTjRUonwY-25" target="YW2QsFQ3kxJcTjRUonwY-4">
          <mxGeometry relative="1" as="geometry" />
        </mxCell>
        <mxCell id="YW2QsFQ3kxJcTjRUonwY-25" value="João N." style="shape=umlActor;verticalLabelPosition=bottom;verticalAlign=top;html=1;outlineConnect=0;labelBackgroundColor=none;rounded=1;" vertex="1" parent="1">
          <mxGeometry x="85" y="240" width="30" height="60" as="geometry" />
        </mxCell>
        <mxCell id="YW2QsFQ3kxJcTjRUonwY-26" value="Gustavo" style="shape=umlActor;verticalLabelPosition=bottom;verticalAlign=top;html=1;outlineConnect=0;labelBackgroundColor=none;rounded=1;" vertex="1" parent="1">
          <mxGeometry x="550" y="310" width="30" height="60" as="geometry" />
        </mxCell>
        <mxCell id="YW2QsFQ3kxJcTjRUonwY-29" style="rounded=1;orthogonalLoop=1;jettySize=auto;html=1;entryX=0.5;entryY=0;entryDx=0;entryDy=0;" edge="1" parent="1" source="YW2QsFQ3kxJcTjRUonwY-27" target="YW2QsFQ3kxJcTjRUonwY-23">
          <mxGeometry relative="1" as="geometry" />
        </mxCell>
        <mxCell id="YW2QsFQ3kxJcTjRUonwY-27" value="Andreza&lt;div&gt;&lt;br&gt;&lt;/div&gt;" style="shape=umlActor;verticalLabelPosition=bottom;verticalAlign=top;html=1;outlineConnect=0;labelBackgroundColor=none;rounded=1;" vertex="1" parent="1">
          <mxGeometry x="625" y="240" width="30" height="60" as="geometry" />
        </mxCell>
        <mxCell id="YW2QsFQ3kxJcTjRUonwY-28" style="rounded=1;orthogonalLoop=1;jettySize=auto;html=1;entryX=1;entryY=0.5;entryDx=0;entryDy=0;" edge="1" parent="1" source="YW2QsFQ3kxJcTjRUonwY-27" target="YW2QsFQ3kxJcTjRUonwY-4">
          <mxGeometry relative="1" as="geometry">
            <mxPoint x="480" y="270" as="targetPoint" />
          </mxGeometry>
        </mxCell>
        <mxCell id="YW2QsFQ3kxJcTjRUonwY-30" style="rounded=1;orthogonalLoop=1;jettySize=auto;html=1;entryX=0.952;entryY=0.29;entryDx=0;entryDy=0;entryPerimeter=0;" edge="1" parent="1" source="YW2QsFQ3kxJcTjRUonwY-26" target="YW2QsFQ3kxJcTjRUonwY-22">
          <mxGeometry relative="1" as="geometry" />
        </mxCell>
        <mxCell id="YW2QsFQ3kxJcTjRUonwY-31" style="rounded=1;orthogonalLoop=1;jettySize=auto;html=1;entryX=0.083;entryY=0.2;entryDx=0;entryDy=0;entryPerimeter=0;" edge="1" parent="1" source="YW2QsFQ3kxJcTjRUonwY-1" target="YW2QsFQ3kxJcTjRUonwY-21">
          <mxGeometry relative="1" as="geometry" />
        </mxCell>
        <mxCell id="YW2QsFQ3kxJcTjRUonwY-32" style="rounded=1;orthogonalLoop=1;jettySize=auto;html=1;entryX=0.5;entryY=0;entryDx=0;entryDy=0;" edge="1" parent="1" source="YW2QsFQ3kxJcTjRUonwY-25" target="YW2QsFQ3kxJcTjRUonwY-20">
          <mxGeometry relative="1" as="geometry">
            <mxPoint x="90" y="420" as="targetPoint" />
          </mxGeometry>
        </mxCell>
        <mxCell id="YW2QsFQ3kxJcTjRUonwY-42" value="Documenta" style="text;html=1;align=center;verticalAlign=middle;resizable=0;points=[];autosize=1;strokeColor=none;fillColor=none;rotation=0;" vertex="1" parent="1">
          <mxGeometry x="530" y="240" width="80" height="30" as="geometry" />
        </mxCell>
        <mxCell id="YW2QsFQ3kxJcTjRUonwY-44" value="dev" style="text;html=1;align=center;verticalAlign=middle;resizable=0;points=[];autosize=1;strokeColor=none;fillColor=none;" vertex="1" parent="1">
          <mxGeometry x="510" y="330" width="40" height="30" as="geometry" />
        </mxCell>
        <mxCell id="YW2QsFQ3kxJcTjRUonwY-45" value="dev" style="text;html=1;align=center;verticalAlign=middle;resizable=0;points=[];autosize=1;strokeColor=none;fillColor=none;" vertex="1" parent="1">
          <mxGeometry x="640" y="380" width="40" height="30" as="geometry" />
        </mxCell>
        <mxCell id="YW2QsFQ3kxJcTjRUonwY-46" value="dev" style="text;html=1;align=center;verticalAlign=middle;resizable=0;points=[];autosize=1;strokeColor=none;fillColor=none;" vertex="1" parent="1">
          <mxGeometry x="60" y="380" width="40" height="30" as="geometry" />
        </mxCell>
        <mxCell id="YW2QsFQ3kxJcTjRUonwY-47" value="dev" style="text;html=1;align=center;verticalAlign=middle;resizable=0;points=[];autosize=1;strokeColor=none;fillColor=none;" vertex="1" parent="1">
          <mxGeometry x="190" y="330" width="40" height="30" as="geometry" />
        </mxCell>
        <mxCell id="YW2QsFQ3kxJcTjRUonwY-48" style="rounded=1;orthogonalLoop=1;jettySize=auto;html=1;entryX=1;entryY=0.7;entryDx=0;entryDy=0;entryPerimeter=0;" edge="1" parent="1" source="YW2QsFQ3kxJcTjRUonwY-26" target="YW2QsFQ3kxJcTjRUonwY-4">
          <mxGeometry relative="1" as="geometry" />
        </mxCell>
        <mxCell id="YW2QsFQ3kxJcTjRUonwY-49" value="Revisa" style="text;html=1;align=center;verticalAlign=middle;resizable=0;points=[];autosize=1;strokeColor=none;fillColor=none;" vertex="1" parent="1">
          <mxGeometry x="490" y="288" width="60" height="30" as="geometry" />
        </mxCell>
        <mxCell id="YW2QsFQ3kxJcTjRUonwY-50" style="rounded=1;orthogonalLoop=1;jettySize=auto;html=1;entryX=0.021;entryY=0.7;entryDx=0;entryDy=0;entryPerimeter=0;" edge="1" parent="1" source="YW2QsFQ3kxJcTjRUonwY-1" target="YW2QsFQ3kxJcTjRUonwY-4">
          <mxGeometry relative="1" as="geometry" />
        </mxCell>
        <mxCell id="YW2QsFQ3kxJcTjRUonwY-53" value="" style="edgeStyle=none;orthogonalLoop=1;jettySize=auto;html=1;rounded=1;entryX=1;entryY=0;entryDx=0;entryDy=0;" edge="1" parent="1" target="YW2QsFQ3kxJcTjRUonwY-4">
          <mxGeometry width="100" relative="1" as="geometry">
            <mxPoint x="520" y="270" as="sourcePoint" />
            <mxPoint x="530" y="200" as="targetPoint" />
            <Array as="points">
              <mxPoint x="510" y="240" />
            </Array>
          </mxGeometry>
        </mxCell>
        <mxCell id="YW2QsFQ3kxJcTjRUonwY-54" value="Revisa" style="text;html=1;align=center;verticalAlign=middle;resizable=0;points=[];autosize=1;strokeColor=none;fillColor=none;" vertex="1" parent="1">
          <mxGeometry x="470" y="215" width="60" height="30" as="geometry" />
        </mxCell>
        <mxCell id="YW2QsFQ3kxJcTjRUonwY-55" value="Revisa" style="text;html=1;align=center;verticalAlign=middle;resizable=0;points=[];autosize=1;strokeColor=none;fillColor=none;" vertex="1" parent="1">
          <mxGeometry x="190" y="288" width="60" height="30" as="geometry" />
        </mxCell>
        <mxCell id="YW2QsFQ3kxJcTjRUonwY-56" value="Revisa" style="text;html=1;align=center;verticalAlign=middle;resizable=0;points=[];autosize=1;strokeColor=none;fillColor=none;" vertex="1" parent="1">
          <mxGeometry x="130" y="240" width="60" height="30" as="geometry" />
        </mxCell>
        <mxCell id="YW2QsFQ3kxJcTjRUonwY-57" value="&amp;lt;push&amp;gt;" style="text;html=1;align=center;verticalAlign=middle;resizable=0;points=[];autosize=1;strokeColor=none;fillColor=none;" vertex="1" parent="1">
          <mxGeometry x="285" y="318" width="60" height="30" as="geometry" />
        </mxCell>
        <mxCell id="YW2QsFQ3kxJcTjRUonwY-58" value="&amp;lt;push&amp;gt;" style="text;html=1;align=center;verticalAlign=middle;resizable=0;points=[];autosize=1;strokeColor=none;fillColor=none;" vertex="1" parent="1">
          <mxGeometry x="400" y="318" width="60" height="30" as="geometry" />
        </mxCell>
        <mxCell id="YW2QsFQ3kxJcTjRUonwY-59" value="&amp;lt;push&amp;gt;" style="text;html=1;align=center;verticalAlign=middle;resizable=0;points=[];autosize=1;strokeColor=none;fillColor=none;" vertex="1" parent="1">
          <mxGeometry x="170" y="440" width="60" height="30" as="geometry" />
        </mxCell>
        <mxCell id="YW2QsFQ3kxJcTjRUonwY-60" value="&amp;lt;push&amp;gt;" style="text;html=1;align=center;verticalAlign=middle;resizable=0;points=[];autosize=1;strokeColor=none;fillColor=none;" vertex="1" parent="1">
          <mxGeometry x="520" y="440" width="60" height="30" as="geometry" />
        </mxCell>
        <mxCell id="YW2QsFQ3kxJcTjRUonwY-61" value="Renato Santos" style="shape=umlActor;verticalLabelPosition=bottom;verticalAlign=top;html=1;outlineConnect=0;labelBackgroundColor=none;rounded=1;fillColor=#f8cecc;gradientColor=#ea6b66;strokeColor=#b85450;" vertex="1" parent="1">
          <mxGeometry x="210" y="20" width="30" height="60" as="geometry" />
        </mxCell>
        <mxCell id="YW2QsFQ3kxJcTjRUonwY-64" style="rounded=1;orthogonalLoop=1;jettySize=auto;html=1;entryX=1;entryY=0.5;entryDx=0;entryDy=0;" edge="1" parent="1" source="YW2QsFQ3kxJcTjRUonwY-62" target="YW2QsFQ3kxJcTjRUonwY-3">
          <mxGeometry relative="1" as="geometry" />
        </mxCell>
        <mxCell id="YW2QsFQ3kxJcTjRUonwY-62" value="Diego / Kelly" style="shape=umlActor;verticalLabelPosition=bottom;verticalAlign=top;html=1;outlineConnect=0;labelBackgroundColor=none;rounded=1;fillColor=#dae8fc;gradientColor=#7ea6e0;strokeColor=#6c8ebf;" vertex="1" parent="1">
          <mxGeometry x="500" y="15" width="30" height="60" as="geometry" />
        </mxCell>
        <mxCell id="YW2QsFQ3kxJcTjRUonwY-65" value="&amp;lt;push&amp;gt;" style="text;html=1;align=center;verticalAlign=middle;resizable=0;points=[];autosize=1;strokeColor=none;fillColor=none;" vertex="1" parent="1">
          <mxGeometry x="370" y="70" width="60" height="30" as="geometry" />
        </mxCell>
        <mxCell id="YW2QsFQ3kxJcTjRUonwY-66" value="Revisa" style="text;html=1;align=center;verticalAlign=middle;resizable=0;points=[];autosize=1;strokeColor=none;fillColor=none;" vertex="1" parent="1">
          <mxGeometry x="440" y="15" width="60" height="30" as="geometry" />
        </mxCell>
        <mxCell id="YW2QsFQ3kxJcTjRUonwY-67" style="rounded=1;orthogonalLoop=1;jettySize=auto;html=1;entryX=0;entryY=0.5;entryDx=0;entryDy=0;" edge="1" parent="1" target="YW2QsFQ3kxJcTjRUonwY-3">
          <mxGeometry relative="1" as="geometry">
            <mxPoint x="250" y="45" as="sourcePoint" />
          </mxGeometry>
        </mxCell>
        <mxCell id="YW2QsFQ3kxJcTjRUonwY-68" value="Revisa" style="text;html=1;align=center;verticalAlign=middle;resizable=0;points=[];autosize=1;strokeColor=none;fillColor=none;" vertex="1" parent="1">
          <mxGeometry x="240" y="15" width="60" height="30" as="geometry" />
        </mxCell>
        <mxCell id="YW2QsFQ3kxJcTjRUonwY-69" style="rounded=1;orthogonalLoop=1;jettySize=auto;html=1;entryX=0.357;entryY=0.003;entryDx=0;entryDy=0;entryPerimeter=0;exitX=1;exitY=1;exitDx=0;exitDy=0;exitPerimeter=0;" edge="1" parent="1" target="YW2QsFQ3kxJcTjRUonwY-4" source="YW2QsFQ3kxJcTjRUonwY-61">
          <mxGeometry relative="1" as="geometry">
            <mxPoint x="230" y="110" as="sourcePoint" />
          </mxGeometry>
        </mxCell>
        <mxCell id="YW2QsFQ3kxJcTjRUonwY-72" value="Revisa" style="text;html=1;align=center;verticalAlign=middle;resizable=0;points=[];autosize=1;strokeColor=none;fillColor=none;" vertex="1" parent="1">
          <mxGeometry x="260" y="100" width="60" height="30" as="geometry" />
        </mxCell>
        <mxCell id="YW2QsFQ3kxJcTjRUonwY-73" value="&lt;div&gt;Guilherme&lt;/div&gt;" style="shape=umlActor;verticalLabelPosition=bottom;verticalAlign=top;html=1;outlineConnect=0;labelBackgroundColor=none;rounded=1;" vertex="1" parent="1">
          <mxGeometry x="500" y="120" width="30" height="60" as="geometry" />
        </mxCell>
        <mxCell id="YW2QsFQ3kxJcTjRUonwY-74" style="rounded=1;orthogonalLoop=1;jettySize=auto;html=1;entryX=0.682;entryY=0.024;entryDx=0;entryDy=0;entryPerimeter=0;" edge="1" parent="1" source="YW2QsFQ3kxJcTjRUonwY-73" target="YW2QsFQ3kxJcTjRUonwY-4">
          <mxGeometry relative="1" as="geometry" />
        </mxCell>
        <mxCell id="YW2QsFQ3kxJcTjRUonwY-75" value="Documenta" style="text;html=1;align=center;verticalAlign=middle;resizable=0;points=[];autosize=1;strokeColor=none;fillColor=none;" vertex="1" parent="1">
          <mxGeometry x="420" y="145" width="80" height="30" as="geometry" />
        </mxCell>
        <mxCell id="YW2QsFQ3kxJcTjRUonwY-78" value="(*) = _paper_conect_grasses" style="rounded=0;whiteSpace=wrap;html=1;" vertex="1" parent="1">
          <mxGeometry x="655" y="20" width="185" height="60" as="geometry" />
        </mxCell>
        <mxCell id="s-u0D3EZiQVrCe4sCpj7-2" value="&lt;div&gt;Guilherme&lt;/div&gt;" style="shape=umlActor;verticalLabelPosition=bottom;verticalAlign=top;html=1;outlineConnect=0;labelBackgroundColor=none;rounded=1;" vertex="1" parent="1">
          <mxGeometry x="200" y="120" width="30" height="60" as="geometry" />
        </mxCell>
        <mxCell id="s-u0D3EZiQVrCe4sCpj7-3" style="rounded=1;orthogonalLoop=1;jettySize=auto;html=1;entryX=0;entryY=0;entryDx=0;entryDy=0;" edge="1" parent="1" source="s-u0D3EZiQVrCe4sCpj7-2" target="YW2QsFQ3kxJcTjRUonwY-4">
          <mxGeometry relative="1" as="geometry" />
        </mxCell>
        <mxCell id="s-u0D3EZiQVrCe4sCpj7-4" value="Revisa" style="text;html=1;align=center;verticalAlign=middle;resizable=0;points=[];autosize=1;strokeColor=none;fillColor=none;" vertex="1" parent="1">
          <mxGeometry x="225" y="145" width="60" height="30" as="geometry" />
        </mxCell>
      </root>
    </mxGraphModel>
  </diagram>
</mxfile>
